<svg width="28" height="21" viewBox="0 0 28 21" fill="none" xmlns="http://www.w3.org/2000/svg">
<path opacity="0.2" d="M11.7491 0.376122C6.13307 1.88812 0.0850704 5.56012 0.0850704 12.0401C0.0850704 17.5841 4.69307 20.8961 8.36507 20.8961H8.43707C10.3811 20.8961 12.5411 19.5281 12.5411 17.5121C12.5411 15.7841 11.8211 14.9921 11.5331 14.9201C8.43707 14.3441 6.34907 12.3281 6.34907 9.66412C6.34907 6.92812 8.72507 4.69612 12.6851 2.82412L11.7491 0.376122ZM26.3651 0.376122C20.7491 1.88812 14.7011 5.56012 14.7011 12.0401C14.7011 17.5841 19.3811 20.8961 22.9811 20.8961H23.0531C25.0691 20.8961 27.1571 19.5281 27.1571 17.5121C27.1571 15.7841 26.5091 14.9921 26.1491 14.9201C23.0531 14.3441 21.0371 12.3281 21.0371 9.66412C21.0371 6.92812 23.3411 4.69612 27.3731 2.82412L26.3651 0.376122Z" fill="#287FDD"/>
</svg>
