<svg width="28" height="21" viewBox="0 0 28 21" fill="none" xmlns="http://www.w3.org/2000/svg">
<path opacity="0.2" d="M4.768 0.42317C2.752 0.42317 0.664 1.86317 0.664 3.80717C0.664 5.53517 1.384 6.32717 1.672 6.39917C4.696 6.97517 6.712 8.91917 6.712 11.5832C6.712 14.3192 4.48 16.6232 0.52 18.4232L1.384 20.9432C7 19.3592 13.12 15.6872 13.12 9.27917C13.12 3.73517 8.368 0.42317 4.768 0.42317ZM19.456 0.42317C17.44 0.42317 15.352 1.86317 15.352 3.80717C15.352 5.53517 16.072 6.32717 16.36 6.39917C19.384 6.97517 21.4 8.91917 21.4 11.5832C21.4 14.3192 19.168 16.6232 15.208 18.4232L16.072 20.9432C21.688 19.3592 27.808 15.6872 27.808 9.27917C27.808 3.73517 23.128 0.42317 19.456 0.42317Z" fill="#287FDD"/>
</svg>
