<svg width="313" height="26" fill="none" xmlns="http://www.w3.org/2000/svg"><path d="M43.332.51h9.494l7.138 14.467h.066V.51h7.858v24.98h-9.495l-7.137-14.397h-.066V25.49h-7.858V.51zm33.117 23.886c-1.906-1.01-3.49-2.597-4.552-4.56a15.321 15.321 0 01-1.6-6.837c0-2.384.549-4.731 1.6-6.836 1.062-1.964 2.646-3.55 4.552-4.558A15.48 15.48 0 0183.298 0c2.365 0 4.702.548 6.849 1.605 1.906 1.008 3.489 2.593 4.549 4.558a15.322 15.322 0 011.6 6.836c0 2.384-.55 4.731-1.6 6.836-1.061 1.965-2.644 3.552-4.55 4.561A15.496 15.496 0 0183.299 26a15.49 15.49 0 01-6.849-1.604zm9.363-6.507a4.55 4.55 0 001.665-1.943 7.623 7.623 0 00.586-2.937c0-1.011-.2-2.012-.586-2.936a4.59 4.59 0 00-1.665-1.943 4.91 4.91 0 00-2.504-.692 4.91 4.91 0 00-2.505.692 4.546 4.546 0 00-1.665 1.943 7.586 7.586 0 00-.589 2.936c0 1.012.2 2.013.589 2.937a4.506 4.506 0 001.665 1.943 4.91 4.91 0 002.505.692 4.91 4.91 0 002.504-.692zM96.296.51h8.265l3.165 16.653h.064L111.527.51h9.498l3.837 16.653h.064L127.995.51h8.264l-6.365 24.98h-10.135l-3.417-16.272h-.077L112.78 25.49h-10.118L96.296.51zm41.888 0h8.666v24.98h-8.666V.51zm12.038 0h8.935l6.719 14.467h.06V.51h7.397v24.98h-8.937l-6.717-14.397h-.062V25.49h-7.395V.51zm43.042 14.394l6.069 1.644a10.413 10.413 0 01-1.754 4.998 9.818 9.818 0 01-3.89 3.29A12.32 12.32 0 01188.477 26a13.075 13.075 0 01-6.36-1.582c-1.839-1.015-3.356-2.597-4.356-4.545a14.132 14.132 0 01-1.513-5.899c-.016-.32-.026-.644-.026-.971 0-.328 0-.655.026-.972a14.18 14.18 0 011.513-5.902c1-1.947 2.517-3.528 4.356-4.542a13.12 13.12 0 016.36-1.585c1.793.001 3.566.397 5.212 1.162a9.847 9.847 0 013.89 3.294 10.4 10.4 0 011.754 4.999l-6.066 1.64-1.301.34a7.422 7.422 0 00-.69-2.144 3.441 3.441 0 00-1.154-1.33 3.118 3.118 0 00-1.616-.535h-.272a3.248 3.248 0 00-2.039.682 4.26 4.26 0 00-1.349 1.943 6.65 6.65 0 00-.212.696 8.621 8.621 0 00-.237 1.64v1.238c.026.554.105 1.103.237 1.64.019.085.041.16.063.238.045.16.095.31.149.46a4.235 4.235 0 001.349 1.94 3.249 3.249 0 002.039.683h.272a3.118 3.118 0 001.616-.535 3.44 3.44 0 001.154-1.33c.337-.67.57-1.395.69-2.145l1.298.327zM201.258.51h8.686v17.347h7.684v7.633h-16.37V.51zm22.854 23.775c-1.568-.725-2.884-1.962-3.759-3.537-.855-1.553-1.281-3.436-1.279-5.65V.51h8.113v14.25c-.017.63.1 1.255.343 1.828.216.486.572.885 1.015 1.137a3.56 3.56 0 001.606.385c.556 0 1.104-.131 1.607-.385a2.45 2.45 0 001.015-1.137 4.4 4.4 0 00.343-1.828V.51h8.106v14.585c0 2.21-.426 4.092-1.279 5.65-.875 1.576-2.192 2.815-3.762 3.54-1.653.803-3.666 1.205-6.039 1.205-2.374 0-4.384-.401-6.03-1.205zM244.109.51h10.448c4.072 0 7.201 1.081 9.387 3.244 2.187 2.162 3.279 5.245 3.276 9.248 0 2.66-.491 4.92-1.473 6.782-.994 1.875-2.499 3.362-4.305 4.249-1.888.974-4.183 1.46-6.885 1.457h-10.448V.51zm10.448 18.04a4.357 4.357 0 002.423-.64 3.917 3.917 0 001.502-1.892 7.977 7.977 0 00.508-3.016c0-1.782-.38-3.153-1.141-4.113-.76-.96-1.858-1.44-3.292-1.44h-2.534v11.102h2.534zM269.63.51h16.534v6.94h-8.585v2.427h7.313v5.9h-7.313v2.774h8.902v6.94H269.63V.51zm19.261 0h10.448c4.072 0 7.201 1.081 9.387 3.244 2.186 2.162 3.278 5.245 3.276 9.248 0 2.66-.49 4.92-1.47 6.782-.996 1.875-2.503 3.36-4.309 4.249-1.888.974-4.182 1.46-6.884 1.457h-10.448V.51zm10.448 18.04a4.356 4.356 0 002.422-.64 3.91 3.91 0 001.503-1.892c.36-.955.534-1.983.508-3.016 0-1.782-.381-3.153-1.141-4.113-.761-.96-1.858-1.44-3.292-1.44h-2.532v11.102h2.532zM35.148.51v24.98h-19.48L7.121 15.078V25.49H0V.51h35.148z" fill="#1D1D1D"/></svg>